<?xml version="1.0" encoding="UTF-8"?>
<svg width="320" height="320" viewBox="0 0 320 320" xmlns="http://www.w3.org/2000/svg">
  <defs>
    <style>
      .o { fill: none; stroke: currentColor; stroke-width: 2; stroke-linecap: round; stroke-linejoin: round; }
    </style>

    <symbol id="apple" viewBox="0 0 48 48">
      <path class="o" d="M24 14c4-1 7-5 7-9-3 0-6 2-7 5-1-3-4-5-7-5 0 4 3 8 7 9z"/>
      <path class="o" d="M11 22c0-6 5-10 13-10s13 4 13 10c0 10-5 18-13 18S11 32 11 22z"/>
      <path class="o" d="M29 14c3-1 5-1 8 1"/>
      <path class="o" d="M20 14c-3-1-5-1-8 1"/>
    </symbol>

    <symbol id="banana" viewBox="0 0 48 48">
      <path class="o" d="M7 15c4 14 18 22 31 20-2 4-8 7-14 6C15 39 9 33 7 24c-1-3-1-6 0-9z"/>
      <path class="o" d="M6 13l4 1M36 33l5 2"/>
    </symbol>

    <symbol id="carrot" viewBox="0 0 48 48">
      <path class="o" d="M28 5c2 2 3 5 3 8-3-2-6-1-8 1-2-2-5-3-8-1 0-3 1-6 3-8"/>
      <path class="o" d="M23 14c-4 3-8 9-11 16-2 5 3 8 8 6 7-3 13-7 16-11"/>
      <path class="o" d="M26 21l3 3M20 24l3 3"/>
    </symbol>

    <symbol id="broccoli" viewBox="0 0 48 48">
      <path class="o" d="M15 19c-4 0-7-3-7-7s3-7 7-7c2 0 4 1 5 2 1-2 3-3 5-3 4 0 7 3 7 7 0 1 0 1 0 2 1-1 3-2 4-2 4 0 7 3 7 7s-3 7-7 7H15z"/>
      <path class="o" d="M20 19c0 9 1 17 4 22M28 19c0 9-1 17-4 22"/>
    </symbol>

    <symbol id="tomato" viewBox="0 0 48 48">
      <path class="o" d="M10 24c0-8 6-12 14-12s14 4 14 12-6 14-14 14S10 32 10 24z"/>
      <path class="o" d="M24 12c-2-3-7-4-10-3 3 2 4 5 4 7M24 12c2-3 7-4 10-3-3 2-4 5-4 7"/>
      <path class="o" d="M24 12v5"/>
    </symbol>

    <symbol id="avocado" viewBox="0 0 48 48">
      <path class="o" d="M24 6c8 0 14 10 14 18s-6 16-14 16S10 32 10 24 16 6 24 6z"/>
      <circle class="o" cx="24" cy="26" r="6"/>
    </symbol>

    <symbol id="leaf" viewBox="0 0 48 48">
      <path class="o" d="M8 26c12-14 24-17 32-12-3 9-15 17-26 16"/>
      <path class="o" d="M16 22c3 4 3 9 1 13"/>
    </symbol>
  </defs>

  <g opacity="0.9">
    <use href="#apple" x="18"  y="14"  width="42" height="42"/>
    <use href="#banana" x="100" y="6"   width="46" height="46" transform="rotate(-10 123 29)"/>
    <use href="#carrot" x="190" y="18"  width="44" height="44" transform="rotate(20 212 40)"/>
    <use href="#broccoli" x="250" y="8" width="44" height="44"/>
    <use href="#tomato" x="60"  y="84"  width="42" height="42"/>
    <use href="#avocado" x="130" y="86" width="46" height="46"/>
    <use href="#leaf" x="212" y="88"    width="46" height="46" transform="rotate(-15 235 111)"/>
    <use href="#apple" x="272" y="86"   width="42" height="42"/>

    <use href="#banana" x="24"  y="162" width="46" height="46" transform="rotate(6 47 185)"/>
    <use href="#carrot" x="88"  y="154" width="44" height="44" transform="rotate(-30 110 176)"/>
    <use href="#broccoli" x="152" y="148" width="44" height="44"/>
    <use href="#tomato" x="222" y="152" width="42" height="42"/>
    <use href="#leaf" x="280" y="150"    width="46" height="46" transform="rotate(18 303 173)"/>

    <use href="#avocado" x="18"  y="240" width="46" height="46"/>
    <use href="#leaf" x="88"  y="238"    width="46" height="46" transform="rotate(-12 111 261)"/>
    <use href="#apple" x="148" y="236"   width="42" height="42"/>
    <use href="#banana" x="206" y="236"  width="46" height="46" transform="rotate(-8 229 259)"/>
    <use href="#carrot" x="264" y="232"  width="44" height="44" transform="rotate(28 286 254)"/>
  </g>

  <g opacity="0.3">
    <use href="#leaf" x="300" y="20" width="40" height="40"/>
    <use href="#tomato" x="10" y="300" width="36" height="36"/>
  </g>
</svg>
