<!-- /public/patterns/services-mask.svg -->
<svg xmlns="http://www.w3.org/2000/svg" viewBox="0 0 120 120">
  <g fill="none" stroke="#fff" stroke-width="1.5" stroke-linecap="round" stroke-linejoin="round" opacity="0.9">
    <!-- cuchillo / tenedor -->
    <path d="M16 20 l10 10 M22 26 l2 -8 M28 20 l0 12 M32 20 l0 12 M36 20 l0 12" />
    <!-- bowl + cuchara -->
    <path d="M80 28 a10 6 0 0 1 -20 0 h20z" />
    <path d="M65 22 q6 -6 12 0" />
    <!-- hoja -->
    <path d="M20 80 q12 -10 26 0 q-12 10 -26 0 z" />
    <path d="M33 72 q-3 10 -8 12" />
    <!-- balanza/simple scale -->
    <path d="M92 78 h16 M100 60 v30 M95 66 h10" />
  </g>
  <!-- puntos suaves de relleno -->
  <g fill="#fff" opacity="0.35">
    <circle cx="8" cy="56" r="1.2"/>
    <circle cx="46" cy="10" r="1.2"/>
    <circle cx="60" cy="88" r="1.2"/>
    <circle cx="112" cy="40" r="1.2"/>
    <circle cx="92" cy="106" r="1.2"/>
  </g>
</svg>
