<!-- /public/patterns/faq-mask.svg -->
<svg xmlns="http://www.w3.org/2000/svg" viewBox="0 0 120 120">
  <g fill="none" stroke="#fff" stroke-width="1.8" stroke-linecap="round" stroke-linejoin="round" opacity="0.95">
    <!-- ? -->
    <path d="M24 18 q8 -8 16 0 q4 4 0 10 q-2 2 -6 4 q-3 2 -3 6" />
    <circle cx="31" cy="44" r="1.6"/>
    <!-- ? -->
    <path d="M82 22 q8 -8 16 0 q4 4 0 10 q-2 2 -6 4 q-3 2 -3 6" />
    <circle cx="89" cy="48" r="1.6"/>
    <!-- ? -->
    <path d="M50 70 q8 -8 16 0 q4 4 0 10 q-2 2 -6 4 q-3 2 -3 6" />
    <circle cx="57" cy="96" r="1.6"/>
  </g>
  <!-- puntos de apoyo -->
  <g fill="#fff" opacity="0.35">
    <circle cx="10" cy="74" r="1.2"/>
    <circle cx="108" cy="88" r="1.2"/>
    <circle cx="70" cy="14" r="1.2"/>
  </g>
</svg>
